<svg xmlns="http://www.w3.org/2000/svg" width="16" height="16" viewBox="0 0 16 16">
    <g fill="none" fill-rule="evenodd">
        <path d="M0 0h16v16H0z"/>
        <g stroke="#969696">
            <path fill="#969696" stroke-width=".3" d="M11.3 11.635H4.156c-.284 0-.516.292-.516.65v2.525c0 .359.232.652.516.652H11.3c.285 0 .517-.293.517-.652v-2.524c0-.359-.232-.651-.517-.651zm-.101.614c.002.01.003.023.003.037v2.524a.198.198 0 0 1-.003.037h-6.94a.197.197 0 0 1-.004-.037v-2.524c0-.014.001-.026.003-.037h6.94z"/>
            <path stroke-linejoin="round" stroke-width=".9" d="M12.807 2.559h2.15s-1.783 5.936-7.193 5.936h-.072C2.282 8.495.5 2.559.5 2.559h2.15"/>
            <path stroke-linecap="round" stroke-linejoin="round" stroke-width=".9" d="M7.677 8.479C3.705 8.107 3.764.5 3.764.5h7.929s.058 7.607-3.913 7.979"/>
            <path stroke-width=".9" d="M6.991 9S7.246 10.514 5 12m4.009-3S8.753 10.514 11 12"/>
        </g>
    </g>
</svg>
